<svg xmlns="http://www.w3.org/2000/svg" version="1.1" xmlns:xlink="http://www.w3.org/1999/xlink" width="287" height="224"><svg width="287" height="224" viewBox="0 0 287 224" fill="none" xmlns="http://www.w3.org/2000/svg">
<path d="M77.0654 132.226C76.3554 131.439 75.5614 130.629 75.0324 129.706C73.7754 127.51 73.3154 124.912 74.0064 122.454C75.6624 116.556 83.1374 114.049 85.6204 108.433C86.7484 105.884 87.5334 103.089 88.4344 100.449L93.6864 85.0562L109.65 39.2102C111.693 33.3852 114.558 23.1902 117.483 18.2732C120.526 13.1582 125.682 8.24917 130.829 5.35617C134.029 3.55717 137.473 2.32717 141.033 1.45917C151.488 -1.08883 159.602 1.15417 169.645 3.94217C173.768 5.06617 177.949 5.89816 182.077 6.98416L221.864 17.7532C224.674 18.4382 229.219 18.8062 230.807 21.4262C233.836 26.4232 236.036 32.1382 238.641 37.3762C241.734 43.4592 244.749 49.5812 247.686 55.7412C249.246 58.9622 250.926 62.0322 252.204 65.3842H251.524L250.057 65.3332C246.788 63.9432 243.657 62.2332 240.482 60.6432C235.467 58.1652 230.468 55.6552 225.485 53.1132C220.951 50.8042 215.89 48.7642 211.634 46.0092C205.622 50.1612 199.384 54.0152 193.446 58.2582C198.037 72.8972 203.021 87.3992 207.275 102.148L209.234 108.601C210.781 113.195 212.096 117.854 213.574 122.467C216.993 132.969 220.231 143.529 223.288 154.142C225.72 161.075 227.69 168.183 230.188 175.084C230.274 175.13 230.355 175.187 230.446 175.223C231.875 175.777 236.055 175.277 237.864 175.262L253.751 175.23C262.964 175.228 271.235 174.956 278.511 181.574C280.624 183.496 282.408 185.613 283.749 188.145C286.76 193.832 287.364 201.377 285.451 207.514C283.52 213.707 278.722 218.911 273.002 221.833C269.696 223.522 266.364 223.894 262.675 223.917C258.033 223.946 253.375 223.394 248.755 222.994L226.981 221.147L158.249 215.566L134.17 213.506C123.924 212.584 113.686 211.611 103.391 211.48C92.4764 211.931 81.5304 211.872 70.6094 212.261C50.6784 212.969 30.7844 214.165 10.8317 214.467C7.95559 214.511 5.39679 214.407 3.26259 212.217C1.61909 210.531 0.87819 208.199 0.99539 205.869C1.08739 204.041 1.69778 202.478 2.88968 201.09C6.00468 197.462 28.2924 182.638 33.2404 179.902C35.8224 178.474 38.5314 177.204 41.4034 176.484C44.5724 175.69 47.9044 175.585 51.1574 175.506C52.5774 175.472 60.2824 175.753 61.1134 175.425C61.2644 175.366 61.3544 175.209 61.4754 175.101L61.4704 174.369C62.7114 169.06 66.1684 158.925 68.6194 154.228C70.7094 149.25 74.7154 135.348 77.0654 132.226Z" fill="#4849A8"></path>
<path d="M172.501 154.1L206.344 154.149C211.971 154.149 217.669 153.905 223.288 154.142C225.72 161.075 227.69 168.183 230.188 175.084C230.274 175.13 230.355 175.187 230.446 175.223C231.875 175.777 236.055 175.277 237.864 175.262L253.751 175.23C262.964 175.228 271.235 174.956 278.511 181.574C280.624 183.496 282.408 185.613 283.749 188.145C286.76 193.832 287.364 201.377 285.451 207.514C283.52 213.707 278.722 218.911 273.002 221.833C269.696 223.522 266.364 223.894 262.675 223.917C258.033 223.946 253.375 223.394 248.755 222.994L226.981 221.147L158.249 215.566L134.17 213.506C123.924 212.584 113.686 211.611 103.391 211.48C92.4764 211.931 81.5304 211.872 70.6094 212.261C50.6784 212.969 30.7844 214.165 10.8317 214.467C7.95559 214.511 5.39679 214.407 3.26259 212.217C1.61909 210.531 0.87819 208.199 0.99539 205.869C1.08739 204.041 1.69778 202.478 2.88968 201.09C6.00468 197.462 28.2924 182.638 33.2404 179.902C35.8224 178.474 38.5314 177.204 41.4034 176.484C44.5724 175.69 47.9044 175.585 51.1574 175.506C52.5774 175.472 60.2824 175.753 61.1134 175.425C61.2644 175.366 61.3544 175.209 61.4754 175.101L61.4704 174.369C61.5584 174.74 61.5144 175.142 61.8834 175.329C62.5304 175.656 63.4574 175.642 64.1814 175.659C73.3044 175.879 82.5394 175.542 91.6764 175.533L145.891 175.489C146.021 173.63 157.823 157.677 159.952 154.129L172.501 154.1Z" fill="#242463"></path>
<path d="M103.391 211.48C92.4764 211.931 81.5304 211.872 70.6094 212.261C50.6784 212.969 30.7844 214.165 10.8317 214.467C7.95559 214.511 5.39679 214.407 3.26259 212.217C1.61909 210.531 0.87819 208.199 0.99539 205.869C1.08739 204.041 1.69778 202.478 2.88968 201.09C6.00468 197.462 28.2924 182.638 33.2404 179.902C35.8224 178.474 38.5314 177.204 41.4034 176.484C44.5724 175.69 47.9044 175.585 51.1574 175.506C52.5774 175.472 60.2824 175.753 61.1134 175.425C61.2644 175.366 61.3544 175.209 61.4754 175.101L61.4704 174.369C61.5584 174.74 61.5144 175.142 61.8834 175.329C62.5304 175.656 63.4574 175.642 64.1814 175.659C73.3044 175.879 82.5394 175.542 91.6764 175.533L145.891 175.489C153.523 175.594 161.39 175.095 168.99 175.605C168.569 175.784 168.36 175.857 168.078 176.225C166.39 178.435 122.915 200.97 116.61 204.304C112.314 206.574 107.371 208.72 103.391 211.48Z" fill="#4849A8"></path>
<path d="M172.501 154.1L206.344 154.149C211.971 154.149 217.669 153.905 223.288 154.142C225.72 161.075 227.69 168.183 230.188 175.084C227.994 176.199 176.388 175.382 168.99 175.605C161.39 175.095 153.523 175.594 145.891 175.489C146.021 173.63 157.823 157.677 159.952 154.129L172.501 154.1Z" fill="#F79422"></path>
<path d="M221.864 17.7529C224.674 18.4379 229.219 18.8059 230.807 21.4259C233.836 26.4229 236.036 32.1379 238.641 37.3759C241.734 43.4589 244.749 49.5809 247.686 55.7409C249.246 58.9619 250.926 62.0319 252.204 65.3839H251.524L250.057 65.3329C246.788 63.9429 243.657 62.2329 240.482 60.6429C235.467 58.1649 230.468 55.6549 225.485 53.1129C220.951 50.8039 215.89 48.7639 211.634 46.0089C205.622 50.1609 199.384 54.0149 193.446 58.2579C198.037 72.8969 203.021 87.3989 207.275 102.148C204.518 101.326 200.264 102.501 197.429 102.973L179.387 105.951C175.206 106.62 170.642 107.611 166.401 107.443C164.84 107.381 163.306 107.063 161.99 106.181C160.287 105.04 159.156 103.204 158.784 101.199C158.414 99.2089 158.881 97.1539 160.075 95.5179C162.372 92.3189 165.842 91.7359 169.447 91.1699C168.756 85.2859 168.707 79.2909 168.391 73.3769C168.124 68.3679 167.55 63.2899 167.724 58.2749C167.787 55.9219 168.119 53.5829 168.711 51.3039C170.174 45.9849 173.332 41.2899 177.705 37.9299C181.501 35.0259 186.408 33.6149 190.771 31.7889C197.703 28.8359 204.676 25.9789 211.688 23.2199C214.679 22.0179 218.202 20.8919 220.918 19.1549C221.589 18.7259 221.685 18.5189 221.864 17.7529Z" fill="#242463"></path>
<path d="M77.065 132.226C76.355 131.439 75.561 130.629 75.032 129.706C73.775 127.51 73.315 124.912 74.006 122.454C75.662 116.556 83.137 114.049 85.62 108.433C86.748 105.884 87.533 103.089 88.434 100.449L93.686 85.0562L109.65 39.2102C111.693 33.3852 114.558 23.1902 117.483 18.2732C120.526 13.1582 125.682 8.24917 130.829 5.35617C134.029 3.55717 137.473 2.32717 141.033 1.45917C151.488 -1.08883 159.602 1.15417 169.645 3.94217C169.13 5.08617 168.621 5.22618 167.491 5.65418C163.226 7.26818 158.822 8.62017 154.634 10.4202C143.836 15.0602 135.674 22.5162 130.855 33.2822C127.403 40.9942 126.023 50.7032 124.057 58.9362C121.282 70.5612 118.185 82.1042 115.616 93.7782C113.831 101.889 111.388 114.95 107.243 121.845C104.987 125.596 101.751 127.964 97.705 129.566C91.453 132.042 83.741 132.32 77.065 132.226Z" fill="#6A70C8"></path>
<path d="M209.234 108.601C210.781 113.195 212.096 117.854 213.574 122.467C216.993 132.969 220.231 143.529 223.288 154.142C217.669 153.905 211.971 154.149 206.344 154.149L172.501 154.1C172.579 149.485 172.115 144.773 171.878 140.161L170.646 115.421L193.194 111.83C198.13 111.049 204.69 110.544 209.234 108.601Z" fill="#242463"></path>
<path d="M68.6187 154.228C80.7737 154.122 92.9297 154.089 105.086 154.129H159.952C157.823 157.677 146.021 173.63 145.891 175.489L91.6757 175.533C82.5387 175.542 73.3037 175.879 64.1807 175.659C63.4567 175.642 62.5297 175.656 61.8827 175.329C61.5137 175.142 61.5577 174.74 61.4697 174.369C62.7107 169.06 66.1677 158.925 68.6187 154.228Z" fill="#FEB543"></path>
<path d="M252.203 65.384C257.857 66.05 262.48 67.702 266.109 72.277C269.313 76.315 270.385 81.675 269.753 86.731C269.167 91.179 266.831 95.209 263.264 97.929C259.973 100.485 255.629 101.72 251.491 101.748C248.47 101.793 245.487 101.076 242.815 99.665C238.482 97.388 235.492 93.503 234.099 88.844C232.66 84.041 233.23 78.861 235.678 74.486C238.766 68.898 244.23 66.99 250.056 65.333L251.523 65.384H252.203Z" fill="#F79422"></path>
<path d="M250.056 65.333L251.523 65.384C251.693 65.877 251.662 65.908 251.6 66.401C251.273 68.988 251.582 71.92 251.618 74.54C251.685 79.395 251.586 84.25 251.639 89.106C251.684 93.218 252.051 97.673 251.491 101.748C248.47 101.793 245.487 101.076 242.815 99.665C238.482 97.388 235.492 93.503 234.099 88.844C232.66 84.041 233.23 78.861 235.678 74.486C238.766 68.898 244.23 66.99 250.056 65.333Z" fill="#FEB543"></path>
</svg><style>@media (prefers-color-scheme: light) { :root { filter: none; } }
@media (prefers-color-scheme: dark) { :root { filter: none; } }
</style></svg>